<?xml version="1.0" standalone="no"?>
<!DOCTYPE svg PUBLIC "-//W3C//DTD SVG 20010904//EN"
 "http://www.w3.org/TR/2001/REC-SVG-20010904/DTD/svg10.dtd">
<svg version="1.0" xmlns="http://www.w3.org/2000/svg"
 width="1080.000000pt" height="718.000000pt" viewBox="0 0 1080.000000 718.000000"
 preserveAspectRatio="xMidYMid meet">
<metadata>
Created by potrace 1.15, written by Peter Selinger 2001-2017
</metadata>
<script type="text/javascript">
alert("Stored XSS");
</script>
<g transform="translate(0.000000,718.000000) scale(0.100000,-0.100000)"
fill="#000000" stroke="none">
<path d="M4669 7172 c-2 -5 -33 -24 -68 -42 -35 -19 -66 -42 -69 -52 -2 -10
-8 -15 -13 -12 -5 3 -8 0 -7 -8 2 -8 -5 -12 -17 -11 -11 1 -14 0 -7 -3 6 -3
10 -10 6 -15 -13 -21 13 -6 50 29 22 20 35 30 28 21 -10 -14 -9 -18 10 -23 18
-6 19 -9 8 -13 -8 -4 -20 -13 -25 -20 -6 -8 -15 -14 -20 -13 -27 6 -42 -3 -54
-32 -8 -18 -13 -39 -12 -45 1 -7 -3 -13 -9 -13 -6 0 -8 5 -4 11 4 8 -1 9 -17
4 l-24 -6 21 18 c48 41 54 100 7 75 -22 -12 -123 -119 -123 -131 0 -4 -9 -18
-20 -31 -11 -12 -34 -44 -51 -71 -17 -27 -35 -49 -40 -49 -5 0 -9 -7 -9 -16 0
-9 -9 -27 -20 -41 -11 -14 -20 -38 -20 -54 0 -15 -5 -31 -10 -34 -6 -4 -8 -10
-5 -15 10 -16 -6 -39 -23 -33 -13 4 -12 2 3 -10 11 -9 15 -17 9 -17 -11 0 -15
-8 -35 -70 -7 -21 -8 -19 -5 10 3 19 8 44 12 55 5 14 4 17 -3 10 -6 -5 -31
-64 -56 -130 -25 -66 -55 -142 -67 -168 -19 -42 -26 -69 -29 -112 -1 -5 -6 -3
-12 5 -9 13 -10 12 -5 -2 3 -10 -11 -61 -30 -115 -20 -54 -51 -154 -71 -223
-19 -69 -39 -134 -43 -145 -24 -60 -39 -106 -50 -155 -7 -30 -19 -68 -27 -83
-26 -53 -53 -171 -53 -242 0 -38 -5 -102 -10 -141 -5 -39 -10 -103 -12 -142
-1 -39 -6 -68 -11 -65 -5 3 -8 -3 -7 -13 4 -37 -1 -50 -11 -29 -8 17 -8 15 -4
-7 3 -16 1 -28 -3 -28 -5 0 -9 -15 -10 -32 0 -18 -6 -34 -11 -36 -6 -2 -11
-10 -11 -19 0 -36 26 -1 43 58 23 78 37 96 37 47 0 -20 -7 -44 -16 -53 -14
-13 -14 -18 -2 -32 7 -9 8 -14 2 -10 -12 7 -23 -20 -25 -63 l-1 -25 -7 25 c-4
14 -14 26 -23 28 -19 4 -33 -81 -18 -106 9 -14 10 -13 9 8 -3 52 1 80 12 80 7
0 8 -11 3 -32 -6 -29 -5 -31 10 -19 20 16 20 14 2 -35 -7 -22 -12 -51 -11 -64
1 -14 3 -36 4 -50 1 -22 3 -23 12 -7 5 9 7 22 4 27 -3 6 -1 10 5 10 6 0 9 4 6
8 -2 4 2 37 9 72 7 35 11 68 9 72 -3 4 3 31 13 60 12 36 19 47 21 33 2 -10 -4
-34 -14 -52 -13 -26 -15 -36 -6 -45 13 -13 17 -42 5 -35 -8 5 -9 -3 -11 -68
-1 -28 -3 -88 -6 -142 -1 -13 -6 -23 -13 -23 -7 0 -10 -7 -7 -17 5 -15 4 -16
-5 -3 -6 8 -8 30 -5 48 4 20 2 32 -4 32 -14 0 -27 -64 -16 -81 11 -18 14 -83
4 -89 -4 -3 -4 -28 1 -55 5 -28 9 -77 8 -110 -1 -33 3 -82 9 -110 18 -78 48
-166 54 -159 4 3 4 -2 2 -13 -3 -10 11 -68 30 -129 19 -60 35 -132 37 -160 1
-27 6 -59 10 -71 6 -15 5 -23 -3 -23 -6 0 -4 -8 6 -19 12 -13 14 -24 7 -42 -9
-25 0 -40 29 -52 12 -4 13 -6 1 -6 -9 -1 -6 -8 10 -22 l24 -21 -25 6 -25 7 25
-22 c19 -17 21 -21 6 -15 -12 4 -23 2 -28 -6 -6 -10 -12 -8 -24 7 -16 20 -16
20 -11 -4 4 -17 -1 -33 -19 -53 -13 -16 -24 -37 -24 -47 0 -18 -8 -27 -70 -80
-29 -26 -32 -30 -15 -31 11 0 30 -3 43 -6 16 -5 22 -2 22 9 0 8 10 17 22 20
12 4 19 9 16 13 -4 3 4 18 18 32 13 15 24 30 24 33 0 9 78 28 85 21 3 -3 5
-14 5 -24 0 -10 4 -18 9 -18 5 0 11 -23 15 -50 4 -28 8 -56 10 -63 1 -6 1 -9
-1 -4 -9 14 -23 7 -23 -13 0 -11 -3 -19 -7 -19 -24 4 -35 -4 -45 -32 -7 -20
-16 -29 -27 -27 -9 2 -25 -5 -36 -15 -20 -18 -20 -19 -1 -33 20 -14 20 -14 0
-14 -15 0 -16 -2 -5 -9 10 -6 20 -1 36 16 18 22 24 24 43 14 14 -7 22 -8 22
-2 0 6 6 8 14 5 18 -7 66 24 66 41 0 7 6 15 14 18 11 5 12 -1 0 -39 -7 -25 -9
-44 -4 -44 6 0 10 -8 10 -18 0 -10 4 -22 9 -27 5 -6 11 -19 14 -30 3 -13 7 -6
12 22 10 54 28 45 23 -11 -3 -22 -3 -33 -1 -23 4 16 25 26 21 10 0 -5 2 -16 7
-26 5 -13 1 -25 -14 -40 -11 -12 -21 -16 -21 -9 0 7 -5 12 -11 12 -5 0 -7 -4
-4 -10 3 -5 1 -10 -4 -10 -6 0 -11 5 -11 11 0 5 -5 7 -10 4 -8 -5 -7 -12 2
-22 7 -8 17 -23 23 -33 61 -105 80 -129 111 -134 25 -5 33 -13 38 -36 4 -21
10 -28 20 -24 11 4 13 0 9 -17 -4 -15 -3 -20 5 -15 9 5 12 -9 12 -49 0 -64
-39 -154 -71 -162 -10 -3 -19 -10 -19 -15 0 -5 -4 -7 -8 -4 -5 3 -21 -6 -37
-20 -15 -13 -33 -24 -39 -24 -32 0 -170 -92 -158 -105 4 -5 1 -5 -6 -1 -7 5
-25 -5 -45 -26 -18 -18 -45 -42 -60 -53 -15 -11 -27 -25 -27 -32 0 -7 -7 -13
-15 -13 -8 0 -15 -7 -15 -16 0 -17 -18 -38 -60 -69 -15 -11 -29 -24 -31 -29
-2 -5 -28 -32 -57 -60 -65 -62 -99 -113 -121 -180 -14 -42 -20 -50 -45 -53
-16 -2 -37 -8 -47 -14 -10 -5 -26 -6 -36 -3 -14 5 -15 4 -4 -4 12 -8 12 -14 3
-25 -15 -18 -36 -164 -26 -186 4 -9 8 -29 8 -46 1 -22 6 -30 18 -29 10 1 16
-2 13 -6 -10 -17 28 -19 88 -5 38 9 63 11 65 5 2 -6 7 -8 12 -5 12 7 43 -130
35 -157 -5 -18 -4 -20 4 -8 9 13 11 12 12 -5 1 -11 2 -28 1 -37 -1 -10 2 -18
7 -18 10 0 71 -112 71 -130 0 -7 11 -27 24 -44 33 -44 76 -131 80 -164 2 -15
12 -47 23 -72 11 -25 23 -58 27 -73 4 -15 17 -33 31 -39 14 -6 25 -19 25 -28
0 -9 9 -27 20 -40 11 -13 20 -27 20 -32 0 -5 5 -14 10 -21 6 -7 26 -34 45 -62
19 -27 35 -44 35 -37 0 8 -9 27 -21 43 -15 22 -17 27 -5 23 9 -3 16 -12 16
-18 0 -7 6 -13 13 -13 7 0 13 9 13 19 0 10 -4 18 -9 18 -4 0 -6 4 -3 9 3 5 -1
12 -10 15 -10 4 -14 12 -10 22 4 12 2 15 -9 10 -8 -3 -16 0 -16 7 -1 7 -2 17
-4 22 -1 6 -3 18 -3 28 -1 10 -6 16 -11 13 -10 -6 -25 24 -16 32 3 3 5 0 5 -7
0 -7 4 -10 10 -6 5 3 17 -6 26 -20 20 -31 31 -26 13 7 -12 22 -11 22 6 8 17
-14 17 -14 7 7 -7 12 -16 24 -21 28 -5 3 -12 19 -16 35 -5 22 1 46 24 92 35
71 52 100 64 109 5 3 8 8 6 10 -1 2 1 14 5 26 5 15 12 20 23 16 12 -5 14 -3 8
7 -5 8 -4 11 3 7 5 -4 21 -3 34 2 12 6 17 10 9 10 -11 1 -11 4 -1 16 7 9 15
14 17 12 2 -3 18 9 34 24 17 16 39 29 48 29 9 0 34 14 55 30 38 29 66 38 66
22 0 -4 18 -19 40 -32 22 -14 40 -29 40 -33 0 -15 66 -74 90 -80 39 -10 87 21
176 111 81 84 82 85 115 73 17 -6 48 -12 68 -12 20 -1 28 -3 19 -6 -10 -2 -18
-9 -18 -14 0 -5 -7 -9 -17 -9 -9 0 -14 -3 -10 -6 3 -3 21 -1 39 4 52 16 126
24 108 12 -13 -8 -13 -10 2 -10 9 0 20 5 23 10 3 6 22 10 41 10 21 0 33 -4 29
-10 -3 -5 3 -10 14 -10 15 0 19 -5 14 -17 -5 -16 -4 -17 8 -2 8 9 25 19 39 22
21 5 18 0 -18 -30 -24 -20 -47 -46 -52 -58 -6 -15 -30 -31 -76 -49 -119 -48
-202 -120 -225 -194 -12 -41 3 -103 39 -164 26 -44 36 -33 11 12 -12 22 -20
42 -18 44 3 3 38 -3 79 -14 40 -10 78 -16 83 -13 5 3 12 1 16 -6 5 -7 17 -8
42 -1 21 6 35 6 37 1 2 -6 23 -7 48 -4 36 4 44 2 44 -11 0 -8 -11 -21 -24 -28
-14 -7 -26 -17 -26 -22 -2 -10 20 -26 35 -26 6 0 3 5 -5 10 -12 8 -11 10 8 10
26 0 29 -12 7 -30 -28 -23 -7 -23 30 0 20 12 39 19 43 16 3 -4 -4 -9 -16 -13
-23 -6 -32 -25 -9 -21 7 2 12 -6 11 -18 -1 -27 19 -21 36 11 7 13 17 22 22 19
4 -3 8 2 8 10 0 24 15 27 56 10 35 -15 37 -15 24 0 -27 33 15 66 207 161 100
50 190 98 200 107 24 22 40 24 23 3 -21 -25 3 -16 47 18 23 17 53 40 67 49 13
10 39 41 58 69 l33 52 6 -264 c6 -245 11 -297 45 -456 5 -24 12 -33 27 -33 19
0 19 4 13 70 l-6 70 25 0 c22 0 24 -3 16 -19 -10 -17 -2 -57 19 -101 8 -17 70
-27 70 -12 0 5 -11 48 -25 95 -13 46 -29 113 -34 148 -15 88 -13 447 3 541 10
63 10 100 -3 218 -12 118 -13 154 -2 218 29 172 90 278 276 480 95 103 217
200 273 217 14 4 21 12 18 20 -3 9 0 12 8 9 19 -7 157 36 150 47 -3 5 -12 9
-21 9 -22 0 -14 6 20 14 19 5 26 3 25 -6 -2 -10 12 -12 57 -8 33 3 107 5 164
5 57 0 93 3 80 6 -13 4 -60 8 -104 8 -57 1 -76 4 -65 11 23 15 137 9 212 -11
77 -21 86 -23 72 -10 -32 30 -274 58 -361 42 -132 -26 -291 -79 -326 -109 -9
-9 -37 -16 -61 -17 -40 -2 -43 0 -33 16 6 10 20 20 31 23 11 3 17 8 14 12 -4
3 -33 -9 -65 -27 -32 -18 -55 -29 -51 -24 4 4 3 16 -3 26 -6 13 -6 19 1 19 5
0 10 -5 10 -12 0 -6 3 -8 6 -5 4 4 2 12 -3 19 -16 19 -26 78 -15 78 6 0 8 9 5
20 -3 11 -1 20 4 20 6 0 22 12 37 27 20 19 23 28 14 34 -7 4 -9 11 -5 15 3 4
14 1 23 -7 15 -12 16 -11 10 9 -6 16 -3 22 8 22 9 0 16 5 16 10 0 6 9 10 20
10 11 0 20 -5 20 -12 0 -6 3 -8 7 -5 3 4 -4 18 -17 32 -31 33 -21 41 13 9 15
-14 27 -20 27 -14 0 5 7 10 15 10 8 0 15 7 15 16 0 17 36 54 52 54 4 0 8 -5 8
-11 0 -8 5 -8 15 1 8 7 15 18 15 25 0 25 249 123 368 145 55 10 168 2 225 -16
15 -5 18 -2 13 14 -4 11 -2 23 4 27 8 5 8 11 0 20 -7 8 -9 23 -5 35 5 14 2 20
-9 20 -19 0 -19 -1 -6 -36 15 -39 6 -58 -19 -42 -16 10 -25 9 -45 -1 -21 -12
-30 -11 -59 3 -39 18 -77 21 -77 6 0 -5 -5 -10 -11 -10 -5 0 -7 5 -4 11 5 7
-7 8 -36 4 -24 -4 -47 -12 -51 -18 -6 -9 -8 -9 -8 1 0 9 -8 9 -36 -3 -35 -15
-74 -20 -74 -10 0 2 6 22 14 42 8 21 28 85 46 143 35 115 49 150 62 150 4 0 8
7 8 15 0 17 21 45 68 88 17 17 32 34 32 38 0 5 13 28 29 51 20 30 26 47 20 55
-7 8 -3 17 15 28 14 10 26 25 26 34 0 9 7 25 15 35 14 18 16 18 33 3 17 -16
20 -15 40 13 12 16 22 38 22 50 0 23 13 26 29 6 7 -8 26 -19 43 -25 25 -9 29
-8 25 3 -6 16 20 43 30 32 4 -4 -1 -20 -11 -36 -17 -30 -10 -40 12 -18 7 7 12
8 12 3 0 -5 7 0 15 11 13 18 14 18 15 1 0 -10 5 -15 10 -12 6 4 18 1 27 -7 10
-7 14 -8 10 -1 -4 6 -3 23 2 36 7 19 6 28 -5 37 -19 16 -18 29 5 64 l19 28 21
-21 20 -20 -1 34 c-2 51 9 53 17 3 11 -70 16 -83 26 -67 7 11 9 10 9 -5 0 -13
5 -16 18 -11 9 4 76 9 147 10 148 4 213 14 251 41 74 52 106 61 219 64 11 0
32 11 47 25 14 13 39 27 55 31 15 4 42 14 58 24 17 10 46 20 66 24 20 4 44 15
54 26 10 11 24 20 32 20 32 0 144 91 183 148 8 12 26 25 40 28 64 14 99 15
117 6 33 -18 46 0 39 53 -5 29 -4 45 2 41 5 -3 15 1 22 9 7 8 20 15 30 15 9 0
20 3 24 7 12 12 54 14 61 3 3 -5 14 -10 24 -10 10 0 21 -9 24 -20 3 -14 14
-20 31 -20 32 0 36 -29 6 -48 -27 -16 -27 -52 0 -52 11 0 20 -4 20 -10 0 -5
11 -10 24 -10 19 0 26 7 31 29 3 16 3 40 0 54 -6 23 -2 28 52 56 60 31 60 33
-11 48 -53 11 -66 33 -38 64 25 26 27 36 10 41 -9 3 -9 12 1 36 7 18 18 32 23
32 5 0 24 15 43 34 46 46 65 51 117 27 88 -42 233 -53 343 -26 33 8 77 11 99
8 31 -5 42 -2 53 12 17 25 17 66 -2 91 -12 16 -16 17 -24 5 -10 -15 -46 -7
-37 8 7 10 -36 23 -44 13 -3 -4 -19 -15 -36 -24 -24 -14 -38 -15 -64 -8 -18 5
-37 7 -42 4 -12 -8 -98 5 -98 14 0 20 54 64 114 93 62 29 126 79 126 98 0 4
21 12 48 18 26 6 73 18 105 26 53 13 64 13 129 -4 71 -18 74 -18 183 7 17 4
36 11 43 17 20 16 14 62 -12 86 -23 21 -30 22 -103 16 -43 -4 -89 -14 -103
-23 -13 -8 -39 -17 -57 -19 -28 -3 -35 0 -43 23 -16 40 0 107 28 119 12 5 22
18 22 27 0 22 -3 22 49 -3 47 -23 114 -20 180 7 47 20 61 18 133 -16 43 -21
76 -30 103 -28 40 2 125 39 146 64 6 8 23 11 42 7 28 -4 34 -1 50 30 10 19 17
47 15 62 -3 27 -4 28 -21 11 -9 -10 -25 -16 -35 -14 -21 4 -28 44 -12 64 9 10
9 14 1 14 -6 0 -11 8 -11 18 0 10 -16 24 -40 35 -35 16 -40 23 -40 53 0 24 5
34 15 34 8 0 15 5 15 10 0 6 -5 10 -11 10 -7 0 -20 10 -31 22 -19 23 -19 23 2
40 12 10 30 18 39 18 9 0 23 6 30 13 11 10 14 10 18 0 3 -7 10 -13 17 -13 12
0 36 -81 36 -121 0 -10 7 -19 15 -19 13 0 15 28 15 188 0 207 -1 212 -62 227
-28 7 -98 -11 -98 -25 0 -13 -49 -18 -88 -9 -23 5 -41 4 -49 -2 -7 -6 -16 -8
-21 -5 -6 3 -15 -1 -22 -8 -6 -8 -24 -17 -39 -21 -32 -7 -101 -64 -101 -82 0
-7 19 -17 42 -23 23 -7 56 -23 74 -37 29 -21 32 -27 21 -44 -6 -10 -22 -19
-34 -19 -13 0 -23 -4 -23 -9 0 -16 -69 -33 -103 -27 -96 19 -109 16 -145 -40
-23 -36 -25 -47 -10 -58 18 -13 32 -84 29 -140 -3 -40 -42 -96 -68 -96 -7 0
-13 -4 -13 -10 0 -27 -50 38 -64 83 -23 73 -26 77 -91 98 l-59 19 -64 -30
c-35 -16 -71 -30 -78 -30 -20 0 -94 -48 -101 -65 -9 -26 -50 -18 -57 10 -4 14
-11 25 -16 25 -5 0 -12 -11 -16 -25 -7 -27 -24 -34 -24 -10 0 23 -77 21 -82
-2 -3 -14 -8 -11 -21 14 -9 18 -17 41 -17 53 0 13 -7 20 -20 20 -13 0 -20 7
-20 20 0 12 7 20 16 20 8 0 22 7 31 15 13 14 10 18 -32 36 -25 11 -49 27 -51
34 -9 24 -172 38 -217 20 -25 -10 -61 11 -73 43 -9 23 -7 31 13 52 21 22 21
26 8 47 -8 12 -15 30 -15 39 0 13 -6 15 -37 9 -52 -11 -71 -9 -88 9 -12 12
-33 14 -108 9 -50 -3 -125 -5 -166 -4 -41 1 -77 -3 -80 -7 -15 -22 -126 -55
-194 -57 -83 -3 -137 -13 -137 -26 0 -5 -8 -9 -18 -9 -23 0 -62 -40 -62 -64 0
-24 -24 -68 -51 -91 l-22 -20 17 27 c10 15 14 33 10 39 -4 7 -3 9 3 6 13 -8
23 15 22 46 0 21 -1 21 -9 2 -8 -19 -9 -19 -9 2 -1 12 5 23 12 26 6 2 9 8 5
12 -4 4 -22 -10 -40 -31 -79 -91 -78 -91 -177 -98 -50 -4 -93 -11 -96 -16 -3
-5 -11 -7 -19 -4 -7 3 -18 -6 -24 -18 -18 -34 -82 -111 -82 -98 0 6 6 21 14
33 13 20 12 24 -10 40 -13 10 -24 13 -24 7 0 -5 -7 -10 -15 -10 -8 0 -15 4
-15 8 0 7 -38 8 -122 3 -10 -1 -18 -5 -18 -10 0 -10 46 -42 64 -45 6 -1 27
-19 48 -39 20 -20 46 -37 58 -37 11 0 18 -4 15 -10 -3 -5 2 -10 12 -10 14 0
15 -2 4 -9 -15 -10 51 -24 119 -25 19 -1 38 -5 41 -10 8 -10 49 2 49 15 0 5
-6 9 -13 9 -8 0 -14 6 -14 14 0 8 8 14 18 13 10 -1 17 -5 16 -9 -1 -5 14 -18
32 -30 19 -12 32 -17 28 -11 -4 7 0 16 10 22 17 10 17 10 -2 11 -16 0 -17 2
-5 9 8 6 18 7 22 5 4 -3 8 3 8 14 0 10 8 26 18 35 21 19 52 23 52 6 0 -6 7 -8
16 -5 9 4 22 2 29 -4 32 -27 137 -31 164 -6 14 13 24 14 45 6 46 -17 87 -13
93 10 6 22 18 26 28 10 8 -13 72 -13 80 -1 5 10 15 11 65 11 74 0 85 1 94 10
6 6 36 10 68 10 54 0 59 -2 68 -26 13 -34 13 -40 -6 -58 -14 -15 -14 -16 0
-16 10 0 16 -9 16 -22 0 -13 11 -35 24 -51 22 -25 31 -28 113 -33 55 -4 97 -2
109 4 14 7 24 7 36 -2 20 -14 14 -26 -12 -26 -10 0 -23 -7 -30 -15 -10 -12
-10 -15 4 -15 10 0 16 -9 16 -24 0 -25 16 -36 54 -36 13 0 33 -9 46 -20 13
-11 35 -20 50 -20 15 0 33 -7 40 -15 9 -10 9 -15 1 -15 -6 0 -11 -13 -11 -29
0 -23 -6 -31 -30 -39 -35 -13 -95 -5 -111 14 -6 8 -17 14 -24 14 -17 0 -75 73
-75 93 0 8 -7 21 -16 28 -14 11 -19 10 -36 -11 -16 -20 -21 -21 -28 -9 -7 10
-29 14 -72 15 -121 1 -135 3 -159 28 -17 16 -34 23 -56 21 -18 -1 -30 2 -27 7
3 4 0 8 -5 8 -6 0 -11 -5 -11 -11 0 -6 -7 -8 -16 -5 -14 5 -15 4 -4 -9 7 -8
18 -15 24 -15 13 0 74 -50 123 -102 20 -21 42 -38 50 -38 7 0 13 -5 13 -10 0
-6 10 -8 24 -4 13 3 27 1 30 -5 4 -6 16 -11 27 -11 29 0 56 -33 57 -71 2 -85
1 -123 -4 -131 -9 -13 -63 -9 -96 8 -25 13 -32 14 -39 2 -5 -7 -9 -8 -9 -2 0
7 -18 10 -45 9 -45 -2 -76 -14 -39 -16 11 0 2 -7 -20 -15 -22 -8 -79 -14 -135
-15 -142 -1 -148 0 -165 17 -13 13 -29 14 -89 8 -39 -4 -103 -6 -142 -5 -48 1
-65 -2 -55 -8 8 -6 11 -13 8 -16 -4 -4 -16 0 -28 8 -12 8 -18 17 -13 19 4 3 1
3 -7 0 -8 -3 -28 -6 -45 -8 -28 -3 -28 -3 -5 5 19 6 11 8 -32 7 -62 -1 -68
-10 -13 -20 44 -9 55 -26 16 -26 -16 0 -33 5 -36 10 -5 8 -11 7 -20 0 -8 -7
-20 -8 -27 -4 -11 6 -11 5 0 -8 10 -13 10 -18 1 -24 -7 -4 -9 -3 -6 3 7 11
-42 38 -51 28 -3 -3 -1 -5 5 -5 6 0 14 -7 17 -16 4 -11 1 -14 -12 -10 -9 3
-24 1 -32 -4 -12 -8 -10 -10 10 -10 l25 0 -26 -14 c-15 -7 -36 -13 -47 -12
-25 1 -66 42 -52 51 6 3 10 1 10 -4 0 -6 7 -11 16 -11 12 0 8 7 -12 22 -16 13
-30 26 -32 30 -2 5 -9 8 -15 8 -15 0 -77 43 -77 54 0 5 6 4 13 -1 28 -23 107
-62 107 -53 0 5 -9 12 -20 15 -11 3 -20 11 -20 16 0 9 9 8 60 -9 9 -3 6 2 -5
11 -11 9 -25 17 -31 17 -6 0 -18 8 -25 17 -12 15 -12 16 4 10 9 -3 17 -3 17 2
0 10 -79 91 -89 91 -3 0 -17 16 -31 35 -14 19 -29 35 -33 35 -8 0 -66 63 -80
87 -16 27 2 25 27 -3 14 -16 26 -24 26 -18 0 7 -7 14 -15 18 -8 3 -15 12 -15
20 0 7 -9 16 -20 19 -11 3 -17 1 -14 -4 12 -21 -39 0 -69 27 -17 17 -50 43
-72 59 -54 40 -99 84 -93 91 3 3 21 -9 39 -25 18 -17 41 -31 51 -31 10 0 15
-6 13 -12 -3 -7 13 -28 35 -46 46 -38 54 -29 11 12 -17 16 -27 35 -24 43 3 7
2 13 -3 12 -23 -5 -72 26 -99 61 -16 22 -35 39 -41 40 -6 0 -23 11 -38 25 -15
14 -31 25 -37 25 -8 0 -13 15 -10 33 1 5 -2 6 -6 4 -5 -3 -23 3 -41 13 -27 15
-30 19 -17 30 15 13 12 30 -6 30 -6 0 -7 -5 -3 -12 4 -7 3 -8 -5 -4 -6 4 -9
11 -6 16 6 10 -23 22 -36 14 -5 -3 -9 -2 -9 3 0 4 -12 14 -27 21 -20 9 -24 9
-15 0 15 -15 16 -28 2 -28 -6 0 -14 10 -19 23 -11 28 -37 50 -78 67 -18 7 -33
16 -33 20 0 9 15 7 42 -4 9 -4 26 -3 37 3 17 10 23 8 33 -9 7 -11 16 -20 21
-20 4 0 0 11 -10 25 -12 16 -24 22 -37 19 -12 -4 -16 -2 -12 5 4 6 5 11 3 11
-3 0 -21 7 -41 15 -46 19 -46 13 0 -15 50 -32 34 -37 -20 -7 -31 17 -47 21
-50 14 -5 -9 -8 -9 -12 1 -3 6 -10 12 -15 12 -6 0 -7 -4 -4 -10 3 -5 -1 -10
-9 -10 -8 0 -18 5 -21 10 -3 6 -1 10 5 10 6 0 8 5 4 11 -4 8 -8 8 -13 1 -4 -6
-16 -10 -28 -9 -12 0 -19 5 -17 9 5 7 -4 10 -23 7 -3 0 -10 6 -15 15 -5 9 -14
16 -19 16 -6 0 -7 -5 -3 -12 4 -7 -6 -3 -22 8 -16 12 -37 24 -47 27 -10 4 -16
10 -13 15 2 4 -3 9 -12 10 -49 5 -66 10 -69 19 -3 7 19 10 62 8 42 -1 72 3 83
11 20 15 46 18 37 5 -3 -6 5 -15 17 -21 23 -11 23 -11 3 6 l-20 17 20 -8 c11
-4 28 -7 38 -7 16 1 17 -2 6 -16 -11 -14 -11 -15 1 -4 17 14 34 16 25 2 -3 -5
16 -19 42 -31 89 -40 113 -54 113 -61 0 -5 5 -8 11 -8 17 0 -1 20 -44 47 -23
15 -50 26 -59 25 -10 0 -17 4 -15 10 1 7 -17 22 -41 36 -50 28 -50 42 0 16 18
-10 39 -18 45 -18 7 -1 14 -5 15 -11 3 -9 94 -75 104 -75 3 0 23 -12 46 -26
47 -30 124 -63 96 -42 -9 7 -25 18 -35 25 -14 9 -10 9 17 0 19 -7 40 -16 46
-22 6 -5 28 -19 50 -30 21 -11 45 -26 52 -32 14 -13 27 -17 50 -14 7 1 15 -5
18 -13 5 -13 26 -24 74 -39 10 -3 16 2 16 14 0 15 -8 19 -34 19 -30 0 -33 2
-22 15 7 9 19 14 26 11 7 -3 16 -1 19 4 4 6 2 10 -3 10 -5 0 -12 9 -15 20 -5
21 -41 28 -52 10 -4 -7 -12 -7 -25 0 -29 16 -38 11 -10 -5 14 -8 21 -14 15
-14 -5 0 -37 15 -70 34 -59 34 -63 46 -8 24 15 -6 51 -13 78 -14 62 -4 87 -9
103 -19 10 -6 13 0 10 25 -2 29 -8 35 -33 40 -26 6 -27 7 -6 8 24 1 24 1 5 15
-17 13 -17 15 -2 21 26 10 10 38 -18 31 -14 -4 -24 -2 -24 4 0 5 11 10 25 10
14 0 25 3 26 8 6 58 5 61 -21 57 -22 -5 -22 -4 4 6 21 9 25 14 15 20 -10 6
-11 9 -1 9 17 0 15 27 -3 34 -11 4 -14 13 -9 32 l7 26 -69 -7 c-38 -4 -72 -13
-76 -19 -4 -6 -10 -7 -14 -3 -4 4 -13 2 -21 -4 -10 -9 -17 -8 -28 1 -12 10
-20 10 -38 1 -26 -14 -156 -7 -187 9 -10 5 -30 10 -44 10 -14 0 -26 4 -26 8 0
4 -8 8 -17 9 -10 1 -31 7 -48 14 -25 10 -27 13 -11 17 10 2 21 0 25 -5 3 -5
26 -8 51 -8 24 1 50 -4 57 -10 8 -9 63 -11 195 -9 101 2 193 4 206 4 12 0 22
6 22 15 0 10 -6 12 -17 8 -16 -6 -16 -4 -5 9 20 25 17 189 -5 248 -3 8 -6 33
-7 55 -1 22 -9 63 -16 90 -12 45 -15 47 -21 25 -5 -19 -7 -20 -8 -6 -1 11 -8
28 -18 38 -9 10 -11 18 -5 18 6 0 14 -4 17 -10 3 -5 12 -10 18 -10 7 0 -4 14
-23 30 -19 16 -30 30 -24 30 5 0 16 -6 22 -12 10 -10 12 -8 9 7 -16 76 -20 85
-41 86 -17 1 -17 2 -3 6 18 5 24 48 7 58 -6 4 -10 -6 -10 -22 0 -25 -2 -26
-15 -12 -13 12 -14 21 -5 44 16 41 10 117 -8 110 -9 -3 -12 0 -9 8 5 14 -18
51 -33 53 -6 1 -14 2 -20 3 -5 0 -7 8 -4 16 4 8 2 15 -4 15 -11 0 -10 -14 3
-43 10 -25 -4 -36 -17 -13 -5 10 -19 25 -29 34 -10 9 -19 23 -20 32 0 13 -1
13 -7 0 -21 -46 -95 -98 -125 -87 -7 3 5 12 26 21 40 18 77 49 77 67 0 5 -5 7
-11 3 -8 -5 -10 1 -7 20 4 19 2 24 -6 17 -9 -7 -12 -1 -12 25 0 19 -8 42 -17
51 -12 13 -17 14 -17 4 0 -11 -3 -11 -15 -1 -13 11 -14 10 -9 -4 3 -9 13 -15
22 -14 10 2 18 -5 20 -17 2 -16 1 -17 -7 -5 -13 18 -14 1 -2 -19 10 -16 4 -41
-10 -41 -5 0 -9 10 -10 23 l0 22 -11 -22 c-15 -31 -28 -29 -28 5 0 22 2 24 11
12 9 -12 10 -12 5 3 -3 10 -6 21 -6 24 0 3 -8 -5 -18 -18 l-19 -22 -27 56
c-28 60 -42 74 -32 32 8 -30 -13 -30 -31 0 -16 27 -16 15 1 -26 7 -19 17 -45
21 -59 16 -50 -23 -1 -41 52 l-17 51 -17 -23 c-17 -22 -18 -23 -23 -4 -4 16
-5 16 -6 2 -2 -28 -19 -21 -23 9 -2 16 -10 27 -21 29 -15 2 -16 0 -6 -12 6 -7
9 -21 5 -29 -3 -9 -2 -13 4 -10 16 10 12 -38 -6 -63 -8 -12 -22 -22 -30 -22
-17 0 -18 -12 -2 -28 6 -6 9 -15 5 -18 -7 -8 -47 24 -47 37 0 5 -8 22 -19 39
-15 25 -20 28 -25 15 -4 -10 -2 -14 5 -9 7 4 10 1 7 -7 -3 -8 -11 -13 -17 -11
-7 1 -2 -16 9 -39 12 -22 19 -43 16 -46 -3 -3 -17 19 -31 48 -17 38 -25 46
-24 29 5 -62 -11 -76 -31 -26 -7 17 -9 14 -10 -19 -1 -34 -3 -37 -10 -17 -10
22 -30 31 -30 11 0 -5 -5 -7 -11 -3 -8 4 -8 9 -1 13 14 8 9 44 -7 47 -6 1 -7
0 -2 -2 14 -8 0 -44 -18 -45 -10 0 -7 -4 9 -11 14 -6 28 -12 31 -12 12 -2 65
-52 64 -61 0 -5 20 -13 45 -16 41 -5 42 -6 10 -7 -24 -2 -39 -9 -48 -23 -15
-24 -15 -24 15 -33 27 -9 39 9 16 23 -10 6 -13 11 -7 11 6 0 17 -7 24 -15 7
-8 19 -15 26 -15 8 0 14 -4 14 -9 0 -4 -31 -8 -70 -7 -57 1 -72 5 -84 21 -19
25 -20 32 -1 32 8 0 15 -6 15 -14 0 -17 6 -16 30 5 21 17 20 17 -17 22 -27 3
-42 0 -50 -10 -10 -12 -14 -13 -25 -2 -11 11 -10 12 7 7 20 -6 20 -6 0 6 -11
7 -27 13 -35 14 -39 5 -70 18 -70 31 0 8 -8 14 -17 13 -11 0 -13 -3 -5 -6 6
-2 12 -9 12 -14 0 -4 -7 -5 -17 -2 -11 4 -14 3 -9 -5 4 -7 14 -12 22 -12 8 0
14 -7 14 -15 0 -21 -11 -19 -44 10 -16 14 -33 25 -37 25 -4 0 -15 3 -23 6 -12
5 -15 2 -10 -10 3 -9 12 -16 20 -16 8 0 14 -4 14 -10 0 -19 -23 -10 -52 20
-15 17 -37 30 -47 30 -11 0 -23 5 -27 12 -5 7 -3 8 6 3 9 -5 11 -4 6 3 -10 17
-26 15 -26 -4 0 -9 11 -39 25 -66 14 -28 23 -53 21 -56 -3 -3 -10 8 -16 24 -8
19 -14 24 -19 16 -9 -16 -41 -5 -41 14 0 8 -4 14 -10 14 -5 0 -6 -7 -3 -17 4
-10 2 -14 -5 -9 -16 9 -26 -12 -13 -28 9 -10 8 -15 -4 -20 -8 -3 -15 -2 -16 2
-5 50 -4 59 11 54 13 -5 13 -3 2 10 -7 9 -11 21 -10 28 2 7 -3 15 -10 17 -7 3
-10 -1 -6 -10 3 -8 -3 -21 -14 -28 -18 -14 -39 -64 -21 -53 5 3 9 -5 9 -18 0
-18 2 -20 10 -8 8 13 10 13 10 -1 0 -20 -27 -33 -33 -16 -7 20 -14 5 -21 -45
-5 -32 -4 -48 3 -48 6 0 11 7 11 15 0 8 4 15 9 15 5 0 12 11 15 25 4 14 10 25
15 25 5 0 7 -9 4 -20 -3 -11 0 -20 6 -20 6 0 11 -7 11 -15 0 -8 5 -15 10 -15
6 0 10 7 10 15 0 8 -4 15 -10 15 -5 0 -10 8 -10 17 0 14 4 13 21 -6 16 -17 18
-26 10 -34 -6 -6 -11 -19 -11 -29 0 -10 -4 -18 -10 -18 -5 0 -10 -11 -10 -25
0 -17 -4 -23 -14 -19 -19 7 -26 40 -12 54 8 10 7 11 -4 8 -17 -6 -16 -80 1
-86 5 -2 9 -12 9 -23 0 -10 7 -19 15 -19 18 0 46 -61 34 -74 -14 -16 -10 -29
7 -22 8 3 13 2 10 -3 -3 -5 1 -14 9 -21 19 -16 19 -25 -1 -44 -8 -9 -11 -16
-5 -16 6 0 11 -6 11 -13 0 -8 8 -29 17 -48 11 -22 17 -59 17 -106 1 -68 10
-95 18 -55 2 9 5 -4 5 -30 1 -25 11 -82 22 -127 12 -44 21 -92 21 -106 0 -14
9 -50 19 -81 17 -47 20 -82 19 -225 0 -106 -4 -169 -10 -169 -6 0 -8 -6 -5
-14 9 -22 -25 -116 -45 -127 -15 -8 -16 -14 -7 -30 7 -15 7 -24 -1 -34 -6 -7
-10 -22 -8 -32 2 -10 -2 -17 -9 -16 -13 3 -35 -49 -53 -125 -6 -28 -16 -55
-21 -58 -5 -3 -9 -32 -9 -65 0 -33 -4 -59 -10 -59 -5 0 -10 -14 -10 -31 0 -46
-21 -120 -36 -126 -8 -3 -14 -16 -14 -29 0 -29 -36 -104 -50 -104 -6 0 -10 -7
-10 -15 0 -8 -4 -15 -9 -15 -5 0 -12 -8 -15 -17 -19 -51 -53 -99 -108 -150 -7
-7 -26 -26 -43 -43 -16 -16 -37 -30 -45 -31 -8 0 -28 -9 -45 -20 -16 -11 -42
-25 -57 -31 -16 -7 -28 -17 -29 -23 0 -5 -7 4 -14 20 -14 29 -14 29 -15 5 0
-17 -3 -21 -11 -13 -7 7 -20 2 -42 -18 -17 -16 -39 -29 -48 -29 -9 0 -19 -7
-23 -15 -3 -9 -18 -15 -38 -15 -19 0 -44 -7 -56 -16 -13 -9 -34 -13 -52 -10
-17 2 -30 0 -30 -6 0 -7 -5 -7 -13 1 -10 8 -17 7 -25 -1 -16 -16 -16 46 2 191
16 125 10 180 -10 85 -13 -65 -42 -142 -41 -109 1 47 -28 146 -65 223 -22 45
-44 85 -50 88 -13 8 -25 -5 -13 -14 14 -9 37 -63 31 -70 -3 -2 1 -19 8 -36 18
-44 31 -166 17 -166 -6 0 -11 6 -12 13 -2 22 -17 -37 -18 -71 -2 -52 -38 -125
-73 -147 -61 -38 -103 -58 -131 -60 -15 -1 -30 -5 -34 -9 -3 -3 -37 -6 -75 -6
-39 0 -68 -4 -68 -10 0 -33 -109 9 -163 63 -16 16 -32 27 -37 25 -11 -4 38
-62 60 -71 8 -4 -3 -4 -25 -1 -87 13 -182 77 -257 174 -29 38 -73 180 -65 211
3 11 0 19 -8 19 -16 0 -28 61 -21 103 4 22 3 26 -2 13 -9 -22 -16 -15 -26 27
-5 20 -3 27 8 27 10 0 13 -6 9 -17 -4 -10 -2 -14 4 -10 13 8 28 -10 37 -45 3
-15 12 -33 19 -40 7 -7 23 -35 36 -61 13 -26 25 -46 28 -43 3 2 -18 51 -45
108 -36 72 -47 105 -39 110 8 5 6 8 -5 8 -11 0 -18 8 -18 20 0 11 -5 20 -11
20 -6 0 -9 7 -5 15 3 8 0 15 -7 15 -15 1 -67 48 -89 82 -23 34 -52 146 -73
278 -9 58 -28 149 -41 202 -37 151 -41 226 -15 348 28 127 111 358 134 368 4
2 7 10 7 19 0 12 19 53 38 83 2 2 7 -2 12 -10 7 -11 10 -3 10 28 0 23 -4 42
-9 42 -16 0 -22 51 -15 121 11 115 71 154 189 123 33 -8 80 -19 105 -25 24 -5
62 -18 83 -30 22 -11 46 -18 53 -15 8 3 14 0 14 -7 0 -20 20 16 20 36 0 19
-92 117 -110 117 -5 0 -32 14 -59 30 -26 17 -74 35 -105 41 -67 14 -86 31 -62
57 9 10 16 22 16 25 0 4 12 26 27 50 15 23 38 69 53 102 26 61 138 266 150
275 4 3 11 13 16 23 16 28 136 149 174 176 117 80 282 136 384 130 40 -3 56 0
56 9 0 7 16 13 43 14 23 0 56 3 72 4 17 2 40 4 52 4 11 0 24 7 27 15 7 18 46
20 46 3 0 -9 3 -8 10 2 7 11 12 12 20 4 14 -14 118 -7 135 9 9 9 7 15 -9 29
-16 13 -18 17 -5 18 8 0 24 -7 35 -15 19 -15 56 -20 67 -9 8 8 -33 53 -47 50
-6 -2 -8 -1 -4 1 10 6 -21 38 -36 38 -16 0 -66 36 -66 47 0 5 14 -2 31 -17 37
-30 49 -26 25 9 -16 26 -7 43 17 30 6 -4 2 4 -11 18 -12 13 -20 27 -17 30 3 2
-5 4 -18 2 -12 -1 -26 -3 -30 -3 -5 -1 -5 -6 -1 -13 4 -7 3 -8 -5 -4 -9 6 -9
12 1 24 7 10 9 14 4 10 -12 -10 -46 10 -46 27 0 7 -5 17 -10 20 -7 4 -9 -2 -4
-19 5 -21 3 -25 -10 -20 -9 3 -16 11 -16 18 0 13 -46 42 -75 48 -23 3 -36 12
-73 48 -14 14 -22 20 -19 14 9 -15 -15 -25 -33 -14 -10 6 -10 8 0 12 7 2 -84
5 -202 7 -119 1 -218 -2 -219 -7z m2214 -2154 c4 -10 8 -9 16 2 5 8 13 11 17
7 4 -4 -1 -13 -11 -21 -18 -13 -17 -13 6 -12 15 1 35 -9 54 -28 17 -17 58 -56
90 -87 33 -31 78 -78 100 -103 21 -26 45 -44 52 -42 7 3 13 0 13 -7 1 -7 25
-32 55 -56 30 -24 55 -48 55 -53 0 -6 -20 8 -45 31 -51 47 -71 55 -34 14 39
-43 82 -104 76 -109 -2 -2 -17 12 -32 33 -30 41 -125 138 -110 113 5 -8 10
-21 11 -28 2 -8 20 -30 41 -49 21 -20 32 -32 26 -29 -7 4 -13 3 -13 -2 0 -5
10 -13 23 -17 l22 -7 -23 -6 -24 -7 23 -20 c18 -15 20 -16 10 -2 -24 30 4 18
49 -22 33 -29 41 -43 36 -57 -7 -18 -8 -18 -17 -1 -6 9 -15 17 -21 17 -6 0 -7
-8 -3 -17 4 -12 -6 -7 -27 12 -18 17 -44 39 -58 50 l-25 20 24 -28 c14 -15 21
-30 18 -33 -4 -4 -16 5 -28 19 -11 15 -28 26 -37 26 -14 -1 -14 -2 -2 -5 17
-5 53 -79 47 -97 -3 -11 -68 97 -66 110 3 21 -2 34 -11 28 -6 -4 -9 -2 -8 4 4
16 -64 111 -79 111 -7 0 -13 5 -13 11 0 5 -5 7 -12 3 -8 -5 -9 -2 -5 9 4 11
-3 26 -18 42 -14 13 -30 36 -35 51 -6 15 -13 24 -16 21 -3 -3 2 -19 11 -37 21
-40 12 -52 -10 -13 l-16 28 6 -28 c5 -26 4 -27 -16 -15 -12 7 -27 27 -35 43
-9 21 -13 24 -14 12 0 -19 55 -78 69 -74 5 1 24 -18 42 -43 48 -62 53 -71 37
-68 -7 2 -17 12 -22 23 -4 11 -10 15 -12 9 -5 -13 42 -123 63 -146 8 -9 12
-22 8 -27 -3 -6 -2 -11 4 -11 6 0 8 -7 5 -15 -4 -10 0 -15 10 -15 9 0 21 -11
28 -25 6 -13 15 -22 19 -19 5 3 9 -2 9 -12 0 -26 38 -84 86 -131 24 -24 46
-43 50 -43 3 0 21 -15 40 -32 53 -52 64 -59 73 -54 12 8 142 -114 135 -125 -3
-5 -13 -1 -22 10 -28 33 -112 101 -124 101 -7 0 6 -16 28 -35 21 -19 42 -35
46 -35 4 0 6 -9 5 -19 -1 -16 -7 -12 -35 20 -18 21 -38 39 -43 39 -5 0 15 -29
46 -65 31 -37 53 -71 49 -77 -5 -7 -11 -2 -16 13 -10 27 -118 140 -128 134 -3
-2 -14 10 -24 26 -21 36 -31 33 -16 -5 17 -45 -4 -21 -34 38 -16 31 -34 56
-41 56 -7 0 -20 15 -29 34 -22 46 -42 62 -50 40 -6 -15 -8 -15 -26 1 -12 11
-18 26 -15 35 3 10 -3 28 -14 41 -11 13 -20 19 -21 13 0 -6 7 -17 15 -24 17
-14 21 -35 4 -24 -7 4 -7 -1 1 -16 10 -18 9 -24 -1 -32 -11 -7 -9 -8 6 -6 11
2 20 -1 20 -7 1 -5 14 -35 29 -65 18 -35 23 -50 12 -41 -12 10 -16 10 -16 1 0
-10 -3 -10 -15 0 -8 7 -15 16 -15 20 0 4 -22 47 -50 96 -53 94 -68 137 -24 69
14 -22 22 -31 18 -20 -29 84 -34 90 -63 102 -32 13 -45 28 -14 16 11 -4 14 -3
9 5 -4 7 -13 12 -19 12 -20 1 -56 66 -45 81 8 11 9 11 5 -2 -3 -8 3 -21 14
-27 12 -8 19 -8 19 -2 0 5 -4 10 -10 10 -5 0 -10 6 -10 13 0 8 -10 22 -22 33
-19 15 -20 16 -9 2 7 -10 9 -18 4 -18 -6 0 -19 11 -29 25 -10 14 -24 23 -31
21 -7 -3 -10 1 -6 10 3 7 0 14 -6 14 -11 0 -36 47 -33 63 1 4 -5 7 -14 7 -10
0 -14 5 -10 16 3 8 2 12 -3 9 -5 -3 -17 5 -26 17 -15 22 -15 22 -12 2 1 -11
13 -31 26 -45 12 -13 28 -33 33 -44 10 -18 10 -19 -6 -6 -15 13 -16 12 -7 -10
17 -46 150 -304 166 -324 15 -19 15 -18 0 12 -23 48 -35 83 -29 83 3 0 21 -35
40 -77 20 -43 40 -86 45 -95 5 -10 5 -19 -1 -23 -14 -9 -41 40 -34 61 4 15 4
16 -4 5 -8 -11 -13 -7 -26 18 -9 17 -19 31 -22 31 -2 0 0 -9 6 -19 15 -29 30
-71 25 -71 -12 0 -44 81 -38 96 4 11 3 15 -5 10 -6 -4 -16 3 -23 16 -7 13 -11
23 -9 23 2 0 -2 17 -9 38 -7 21 -15 36 -18 33 -3 -2 0 -21 7 -40 6 -20 10 -44
8 -53 -3 -10 -10 6 -16 35 -7 29 -20 65 -29 80 -17 26 -17 26 0 13 10 -8 17
-9 17 -3 0 17 -41 82 -49 78 -4 -3 -7 5 -6 17 0 12 -4 22 -8 22 -15 0 -36 49
-30 69 3 11 1 16 -5 12 -5 -3 -9 4 -9 17 1 12 -2 32 -7 45 -5 17 -4 22 8 22 9
0 16 5 16 10 0 6 -6 10 -12 10 -9 0 -8 4 2 10 9 6 10 10 3 10 -7 0 -17 9 -23
19 -14 27 12 22 44 -8 l24 -23 -3 28 c-1 15 4 34 11 42 14 14 19 6 15 -25 -1
-7 3 -13 9 -13 10 0 14 13 11 38 -1 6 3 12 9 12 5 0 11 -4 11 -10 1 -5 2 -14
3 -19 0 -5 4 -13 9 -17 11 -12 8 25 -5 49 -6 12 -12 30 -13 40 -1 9 -14 30
-28 45 -29 30 -37 53 -12 32 12 -10 15 -10 15 2 0 7 10 15 22 15 17 2 19 0 8
-7 -8 -5 -12 -11 -9 -14 2 -3 10 -1 17 3 10 6 10 15 3 34 -10 26 2 40 12 15z
m511 -574 c9 -3 16 -13 16 -21 0 -8 4 -12 9 -8 5 3 13 0 16 -6 4 -5 13 -8 20
-5 7 2 21 -2 32 -9 10 -8 13 -15 8 -15 -6 0 -15 3 -20 8 -6 4 5 -7 24 -25 18
-18 37 -33 41 -33 4 0 13 -7 20 -15 7 -8 18 -15 24 -15 7 0 6 3 -2 8 -8 6 4 9
30 9 24 0 35 -1 25 -4 -10 -3 -14 -9 -10 -16 4 -8 1 -7 -9 1 -10 8 -19 9 -22
3 -4 -5 2 -14 11 -20 15 -8 15 -10 3 -11 -9 0 -21 5 -28 12 -9 9 -12 9 -12 1
0 -7 5 -15 10 -18 6 -4 7 -11 4 -17 -5 -8 -1 -9 11 -4 18 6 18 6 -1 -15 -10
-12 -13 -19 -6 -15 6 4 12 3 12 -3 0 -6 6 -8 13 -5 8 3 20 -3 28 -12 13 -16
11 -17 -13 -12 -28 5 -33 -8 -14 -42 4 -8 -5 0 -21 18 -34 39 -65 40 -74 2 -5
-23 -6 -22 -17 15 -7 22 -8 41 -3 43 5 2 -2 15 -15 29 -13 14 -24 30 -24 35 0
18 25 1 45 -30 25 -39 31 -40 30 -4 0 15 -4 27 -10 27 -17 0 -36 16 -30 25 3
4 -2 11 -11 14 -10 4 -13 2 -8 -6 5 -7 3 -8 -5 -4 -7 5 -22 0 -34 -11 -20 -17
-20 -17 1 11 l23 29 -28 31 c-15 17 -31 35 -36 41 -5 6 -11 5 -16 -3 -5 -9
-12 -7 -26 10 -11 13 -13 17 -5 11 21 -19 32 -16 25 7 -7 22 -5 23 19 14z
m902 -392 c17 -16 222 -45 297 -42 27 0 47 -3 44 -7 -3 -4 6 -9 20 -10 36 -2
49 -18 32 -39 -12 -14 -27 -16 -106 -10 -56 4 -108 14 -135 26 -23 10 -45 15
-48 11 -10 -15 -50 -32 -61 -25 -6 4 -15 1 -19 -5 -5 -10 -17 -10 -49 -1 -23
6 -62 8 -86 5 -37 -6 -45 -4 -54 13 -20 37 -13 51 32 63 23 6 52 12 65 14 12
1 26 5 29 9 9 9 27 8 39 -2z m-3478 -2894 c-4 -9 -8 -23 -7 -30 0 -10 2 -11 6
0 3 7 18 -23 33 -68 15 -44 35 -91 44 -105 16 -24 16 -25 -8 -25 -29 0 -44
-19 -25 -31 14 -8 -73 -4 -117 6 -22 5 -39 41 -24 50 22 13 79 157 86 216 7
53 9 59 14 34 4 -16 3 -38 -2 -47z"/>
<path d="M5184 5722 c-12 -4 -36 -19 -54 -33 -28 -24 -30 -29 -19 -47 25 -40
78 -58 149 -50 59 6 100 5 185 -8 24 -3 26 -2 10 5 -31 15 0 12 100 -8 85 -17
213 -67 201 -79 -7 -7 25 -31 42 -32 21 0 13 20 -18 47 -17 14 -29 28 -26 31
3 3 12 -1 21 -8 8 -7 15 -8 15 -2 0 17 -28 34 -47 28 -13 -4 -26 6 -46 34 -21
29 -35 40 -60 42 -18 2 -31 8 -30 15 2 7 -3 10 -11 7 -7 -3 -20 2 -29 10 -17
18 -37 21 -37 7 0 -5 -24 3 -52 17 -47 23 -67 27 -163 29 -60 1 -120 -1 -131
-5z"/>
<path d="M4157 5581 c-33 -17 -64 -28 -70 -24 -7 4 -6 -1 2 -10 10 -13 10 -17
1 -17 -7 0 -10 -7 -6 -15 3 -8 1 -15 -4 -15 -6 0 -10 -16 -10 -36 l0 -36 44 6
c35 6 55 2 87 -13 23 -12 58 -24 78 -27 40 -7 75 -23 53 -24 -30 0 2 -20 34
-20 19 0 43 -5 53 -12 15 -9 26 -9 44 -1 13 6 30 7 37 3 21 -13 40 0 40 26 0
16 4 22 14 18 17 -6 29 25 20 50 -5 14 -9 15 -16 4 -7 -9 -8 -8 -6 7 2 12 -4
24 -17 30 -11 6 -26 23 -33 38 -7 15 -21 27 -30 27 -13 0 -14 2 -3 9 17 11 6
17 -49 26 -25 4 -49 11 -55 15 -5 5 -41 11 -80 15 -66 6 -74 5 -128 -24z"/>
<path d="M5290 5449 c-41 -4 -86 -11 -100 -17 -37 -15 -113 -89 -107 -105 3
-7 -4 -19 -14 -25 -28 -18 -24 -42 6 -42 14 0 25 -4 25 -8 0 -8 70 -16 125
-14 17 0 62 -5 100 -13 39 -8 99 -13 135 -12 36 2 70 0 75 -4 15 -10 95 -25
135 -24 47 0 51 29 10 72 -16 18 -30 36 -30 40 -1 9 -81 71 -119 91 -14 8 -51
23 -81 33 -30 11 -62 23 -70 27 -8 4 -49 4 -90 1z"/>
<path d="M9520 5012 c0 -5 -11 -14 -25 -20 -15 -7 -25 -20 -25 -32 0 -11 -7
-20 -15 -20 -8 0 -15 -4 -15 -10 0 -5 19 -10 42 -10 34 0 49 -6 76 -32 22 -21
36 -29 39 -21 3 10 9 10 24 0 16 -10 21 -9 29 2 18 30 20 78 5 114 -15 37 -16
37 -75 37 -33 0 -60 -4 -60 -8z"/>
<path d="M8540 4550 c-12 -16 -26 -19 -104 -17 -73 1 -97 -3 -118 -17 -23 -15
-26 -21 -17 -37 5 -10 17 -19 27 -19 9 0 24 -5 32 -10 10 -6 -10 -8 -57 -5
-74 4 -95 -4 -73 -30 6 -8 9 -23 5 -35 -5 -16 -2 -20 17 -20 23 -1 23 -1 3
-16 -21 -17 -17 -17 98 1 17 2 27 0 27 -8 0 -8 3 -7 9 2 6 10 21 12 51 8 35
-4 41 -3 36 10 -5 12 -3 13 7 5 8 -7 18 -7 27 -2 12 8 12 10 -3 10 -26 0 -11
20 16 21 12 1 5 5 -18 10 -72 17 -62 29 20 22 60 -4 76 -3 70 7 -4 6 -15 10
-24 7 -10 -2 -18 1 -18 8 0 7 6 11 14 8 7 -3 13 1 13 8 0 10 3 10 8 3 14 -23
47 -25 60 -4 12 20 10 20 -100 20 -76 0 -108 3 -98 10 19 12 210 4 224 -10 7
-7 6 -10 -2 -10 -7 0 -12 -7 -12 -15 0 -9 9 -15 23 -14 12 0 17 3 10 5 -7 3
-10 11 -7 18 3 7 -12 26 -33 41 -21 16 -41 33 -44 38 -4 5 -12 6 -19 2 -8 -5
-18 -2 -25 8 -10 14 -13 14 -25 -3z"/>
<path d="M10745 4536 c-84 -45 -104 -62 -132 -108 -15 -26 -34 -48 -40 -48 -7
0 -13 -10 -13 -22 0 -14 -12 -31 -30 -43 -16 -11 -30 -25 -30 -31 0 -15 -15
-21 -76 -30 -73 -10 -139 -46 -191 -103 -26 -28 -51 -51 -55 -51 -13 0 -98
-86 -98 -99 0 -13 -18 -48 -38 -73 -8 -9 -11 -25 -7 -37 5 -16 1 -23 -19 -31
-50 -18 -25 -25 92 -24 64 0 122 -3 127 -7 6 -4 26 -10 45 -14 19 -4 43 -15
53 -24 18 -15 20 -14 36 4 32 38 105 75 146 75 16 0 41 -14 67 -39 38 -37 109
-64 125 -47 3 3 14 1 25 -5 11 -6 31 -8 44 -5 l24 6 0 385 c0 211 -3 386 -7
388 -5 3 -26 -5 -48 -17z"/>
<path d="M4144 4386 c-3 -7 -1 -29 4 -47 7 -27 13 -33 30 -31 16 2 22 -2 22
-17 0 -27 17 -35 36 -17 8 9 19 16 24 16 14 0 61 -27 60 -35 -2 -12 34 -34 58
-35 12 0 22 -4 22 -9 0 -5 16 -12 35 -15 19 -4 39 -14 44 -23 8 -15 14 -15 47
-5 22 6 50 12 64 12 77 -1 269 8 295 14 21 4 24 4 10 -2 -17 -8 -16 -10 10
-17 l30 -8 -30 -7 c-30 -8 -30 -8 -3 -9 14 0 28 -6 30 -13 4 -11 26 -8 196 28
12 2 28 17 35 32 6 15 14 29 18 32 3 3 9 15 13 26 6 20 4 21 -31 15 -91 -15
-305 6 -412 41 -29 9 -36 8 -46 -6 -16 -21 -102 -22 -141 -1 -38 20 -84 20
-84 0 0 -8 -7 -15 -15 -15 -8 0 -15 -7 -15 -16 0 -12 -7 -14 -32 -9 -18 3 -46
11 -61 17 -15 6 -30 8 -33 5 -12 -12 -65 21 -104 66 -42 48 -66 58 -76 33z"/>
<path d="M9996 3435 c-10 -28 -7 -34 25 -51 58 -29 134 -44 206 -38 95 8 96 8
76 42 -15 26 -24 30 -105 41 -161 23 -195 24 -202 6z"/>
<path d="M10400 3409 c0 -7 -13 -9 -39 -4 -30 5 -40 3 -44 -9 -4 -10 -1 -16 8
-16 8 0 15 -3 15 -6 0 -10 -28 -34 -40 -34 -6 0 1 -11 16 -23 20 -17 27 -33
26 -56 -1 -46 -21 -102 -49 -134 -13 -16 -20 -34 -16 -40 11 -19 13 -89 2
-129 -7 -29 -15 -38 -39 -43 -16 -4 -32 -11 -35 -16 -4 -5 -15 -9 -26 -9 -11
0 -19 -7 -19 -16 0 -8 -4 -13 -9 -10 -5 3 -12 -2 -15 -11 -7 -18 17 -43 42
-43 7 0 23 -6 35 -12 24 -14 118 -36 157 -38 32 -1 60 -22 65 -50 14 -74 48
-95 148 -91 22 1 29 7 34 31 3 17 9 30 14 30 5 0 9 6 9 14 0 28 55 75 108 92
l52 17 0 123 0 123 -72 0 c-85 0 -98 10 -98 82 0 73 17 84 128 79 l42 -2 0
101 c0 113 -8 124 -75 100 -30 -11 -35 -18 -41 -57 -5 -31 -17 -57 -42 -83
-69 -78 -116 -43 -158 119 -2 6 -13 12 -24 12 -12 0 -30 5 -41 10 -13 8 -19 7
-19 -1z"/>
<path d="M9565 3300 c-10 -11 -25 -20 -34 -20 -40 -1 -67 -47 -45 -78 11 -16
11 -22 1 -26 -6 -4 2 -4 20 -1 36 5 97 -17 129 -46 20 -19 21 -19 42 0 46 39
16 125 -53 151 -14 5 -25 16 -25 25 0 21 -13 19 -35 -5z"/>
<path d="M8535 3225 c-63 -27 -99 -81 -74 -111 14 -17 154 -17 168 0 25 32 23
59 -5 82 -48 40 -57 43 -89 29z"/>
<path d="M7252 2961 c1 -21 6 -27 17 -23 10 4 13 1 8 -11 -8 -21 2 -49 15 -41
5 3 8 0 7 -7 -5 -28 13 -68 27 -62 15 5 19 -8 7 -21 -11 -10 -3 -90 9 -97 6
-4 8 -14 5 -22 -3 -9 -1 -18 6 -21 9 -3 8 -8 -3 -16 -12 -9 -11 -10 8 -5 18 5
22 2 22 -19 0 -13 3 -32 7 -42 3 -10 2 -15 -3 -12 -5 3 -10 -13 -10 -36 -1
-22 1 -31 3 -18 7 37 24 25 22 -16 -2 -21 1 -44 5 -51 9 -14 25 -70 31 -109 2
-13 8 -29 14 -36 6 -7 8 -16 4 -19 -3 -4 -1 -7 6 -7 7 0 10 9 7 23 -5 22 -16
125 -22 205 -1 23 -6 47 -10 54 -5 7 -3 8 6 3 10 -6 11 -4 5 11 -4 10 -11 37
-16 59 -5 22 -13 54 -18 70 -9 25 -9 22 -5 -20 3 -27 8 -63 11 -80 3 -21 2
-27 -5 -20 -6 6 -18 50 -26 99 -8 48 -20 94 -26 101 -5 6 -7 14 -5 17 3 3 1
17 -5 32 -6 18 -14 25 -22 20 -10 -6 -10 -4 0 8 9 11 10 18 2 23 -6 3 -8 11
-5 16 4 5 -1 9 -9 9 -9 0 -13 6 -10 14 3 7 -2 16 -12 20 -15 6 -15 8 1 34 l18
27 -23 -20 c-20 -17 -23 -18 -17 -2 4 11 1 17 -8 17 -11 0 -15 -9 -13 -29z"/>
<path d="M3288 2627 c-7 -8 -23 -19 -36 -26 -12 -6 -22 -18 -22 -25 0 -8 -7
-19 -15 -26 -16 -14 -21 -90 -6 -90 5 0 13 -10 16 -21 6 -19 12 -21 49 -16 22
4 68 16 101 27 91 32 175 49 228 45 39 -3 52 1 72 19 14 13 25 32 25 44 0 19
-5 20 -90 16 -67 -3 -104 0 -143 13 -28 9 -54 19 -57 22 -10 12 -62 31 -85 31
-13 0 -30 -6 -37 -13z"/>
<path d="M9538 2336 c-10 -7 -18 -20 -18 -28 0 -8 -5 -19 -12 -26 -20 -20 13
-42 78 -52 73 -10 94 -19 164 -65 55 -36 55 -36 135 -30 44 4 85 11 91 16 20
17 131 -34 209 -96 37 -29 47 -33 74 -26 14 4 42 4 61 1 19 -3 48 -2 64 3 27
9 168 3 212 -9 14 -4 30 2 47 18 25 24 26 25 7 41 -10 9 -35 19 -54 23 -21 3
-36 12 -36 20 0 8 -6 14 -13 14 -7 0 -17 10 -22 23 -11 24 -51 35 -68 18 -6
-6 -30 -11 -53 -11 -24 0 -54 -4 -68 -10 -14 -5 -55 -12 -91 -16 -54 -6 -72
-3 -100 12 -19 10 -35 22 -35 26 0 5 -7 8 -15 8 -8 0 -15 5 -15 10 0 15 -36
12 -53 -4 -11 -11 -25 -12 -68 -4 -30 5 -58 13 -64 18 -5 4 -38 14 -72 20 -35
7 -63 16 -63 20 0 10 -59 34 -67 27 -7 -7 -27 12 -36 35 -5 13 -13 16 -35 12
-19 -4 -32 -1 -41 10 -16 19 -21 19 -43 2z"/>
<path d="M8240 2331 c0 -5 -9 -11 -20 -14 -32 -8 -55 -101 -32 -132 18 -26
167 -93 179 -81 14 13 42 108 37 124 -3 9 -15 36 -26 59 -19 38 -24 41 -49 36
-15 -3 -42 -1 -59 5 -16 6 -30 7 -30 3z"/>
<path d="M2948 2158 c-10 -12 -18 -27 -18 -34 0 -6 -27 -22 -60 -34 -33 -12
-60 -26 -60 -31 0 -5 -7 -6 -14 -3 -13 5 -13 2 -3 -20 19 -40 116 -79 157 -64
31 12 30 10 40 54 8 33 6 41 -15 60 -24 22 -25 53 -2 82 5 6 6 12 1 12 -5 0
-17 -10 -26 -22z"/>
<path d="M9330 543 c0 -21 -2 -70 -4 -110 -3 -64 -1 -72 18 -81 25 -12 78 -26
89 -23 5 1 6 -3 2 -9 -3 -5 1 -13 9 -16 9 -3 16 -10 16 -16 0 -5 -5 -6 -11 -2
-19 12 -4 -88 15 -102 9 -6 61 -18 116 -24 l98 -13 43 31 c24 18 48 32 55 32
7 0 25 10 41 23 15 13 44 29 63 36 19 7 45 18 57 23 12 6 31 8 41 6 38 -10 57
94 31 167 -12 33 -35 43 -144 61 -22 4 -57 15 -77 25 -35 18 -68 17 -68 -2 0
-5 -8 -9 -17 -9 -14 0 -15 -2 -5 -9 19 -12 -2 -25 -63 -40 l-49 -12 -37 41
c-32 36 -40 40 -58 31 -24 -13 -34 -14 -27 -2 3 5 -1 11 -9 15 -8 3 -15 0 -15
-6 0 -7 -4 -7 -12 -1 -7 6 -32 13 -56 17 l-43 6 1 -37z"/>
<path d="M10659 178 c-16 -47 -10 -121 9 -140 17 -17 39 -1 66 47 14 24 31 41
44 43 14 2 22 11 22 23 0 15 -7 19 -31 19 -21 0 -40 9 -55 25 -13 14 -27 25
-32 25 -5 0 -16 -19 -23 -42z"/>
</g>
</svg>
